# xmcd CD database file
#
# Track frame offsets:
#	150
#	17857
#	36049
#
# Disc length: 707 seconds
#
# Revision: 0
# Processed by: cddbd v1.5.2PL0 Copyright (c) Steve Scherf et al.
# Submitted via: CDex 1.70beta2
#
DISCID=1b02c103
DTITLE=Rhody, Alan [CDN-11) - Led By Love
DYEAR=2011
DGENRE=Country
TTITLE0=The Garden Wall
TTITLE1=Bad Times
TTITLE2=The Great Beyond
EXTD=YEAR: 2011
EXTT0=
EXTT1=
EXTT2=
PLAYORDER=
